<?xml version="1.0" standalone="no"?>
<!DOCTYPE svg PUBLIC "-//W3C//DTD SVG 20010904//EN"
 "http://www.w3.org/TR/2001/REC-SVG-20010904/DTD/svg10.dtd">
<svg version="1.0" xmlns="http://www.w3.org/2000/svg"
 width="91.000000pt" height="91.000000pt" viewBox="0 0 91.000000 91.000000"
 preserveAspectRatio="xMidYMid meet">
<metadata>
Created by potrace 1.14, written by Peter Selinger 2001-2017
</metadata>
<g transform="translate(0.000000,91.000000) scale(0.100000,-0.100000)"
fill="#000000" stroke="none">
<path d="M577 869 c-15 -17 -15 -20 -2 -25 8 -4 15 -12 15 -20 0 -20 13 -17
33 7 17 20 18 22 1 40 -21 23 -24 23 -47 -2z"/>
<path d="M490 835 c0 -8 -7 -15 -15 -15 -8 0 -15 -5 -15 -10 0 -6 7 -13 15
-16 8 -4 15 -14 15 -23 1 -13 4 -12 19 6 10 12 21 20 24 17 2 -3 7 2 10 10 4
9 -2 16 -15 19 -11 3 -17 10 -13 16 3 6 -1 11 -9 11 -9 0 -16 -7 -16 -15z"/>
<path d="M341 727 c-37 -18 -63 -71 -66 -130 -1 -29 -8 -63 -16 -77 -20 -36
-22 -490 -2 -490 10 0 13 37 13 183 1 166 2 180 16 155 27 -50 80 -61 153 -32
46 18 62 48 64 123 0 28 4 46 8 39 4 -7 7 -98 7 -203 0 -276 0 -275 15 -269
10 3 12 57 12 237 -1 217 -2 236 -22 268 -12 20 -21 53 -22 83 -1 27 -7 60
-14 75 -22 46 -93 65 -146 38z m115 -38 c17 -18 19 -39 20 -155 1 -74 -1 -136
-5 -138 -3 -2 -5 48 -4 112 2 134 -7 169 -51 188 -31 13 -31 13 -5 14 14 0 34
-9 45 -21z"/>
<path d="M587 719 c-3 -12 -10 -18 -15 -15 -6 3 -12 -1 -16 -9 -4 -10 1 -15
14 -15 11 0 20 -6 20 -14 0 -24 21 -30 27 -7 3 12 12 21 19 21 8 0 14 7 14 16
0 8 -4 13 -9 10 -11 -7 -33 18 -24 27 3 4 -1 7 -9 7 -9 0 -18 -9 -21 -21z"/>
<path d="M316 211 c-8 -12 20 -28 63 -36 39 -7 110 20 94 36 -8 8 -17 7 -33
-1 -22 -12 -66 -9 -101 5 -10 3 -20 2 -23 -4z"/>
</g>
</svg>
